<?xml version="1.0" encoding="iso-8859-1"?>
<!-- Generator: Adobe Illustrator 19.0.0, SVG Export Plug-In . SVG Version: 6.00 Build 0)  -->
<svg version="1.1" id="Layer_1" xmlns="http://www.w3.org/2000/svg" xmlns:xlink="http://www.w3.org/1999/xlink" x="0px" y="0px"
	 viewBox="0 0 512 512" style="enable-background:new 0 0 512 512;" xml:space="preserve">
<g>
	<path style="fill:#FBD971;" d="M512,256c0,141.383-114.617,256-256,256S0,397.383,0,256S114.617,0,256,0S512,114.617,512,256"/>
	<path style="fill:#C03A2B;" d="M135.531,308.966c-9.64,0-15.219,10.805-9.807,18.785c28.398,41.922,75.697,69.491,130.26,69.491
		c54.607,0,101.932-27.604,130.33-69.57c5.376-7.954-0.168-18.706-9.772-18.706H135.531z"/>
	<g>
		<path style="fill:#24AE5F;" d="M158.897,220.69c-19.474,0-35.31-15.837-35.31-35.31c0-4.873,3.946-8.828,8.828-8.828
			c4.882,0,8.828,3.955,8.828,8.828c0,9.737,7.918,17.655,17.655,17.655c9.737,0,17.655-7.918,17.655-17.655
			c0-9.737-7.918-17.655-17.655-17.655c-19.474,0-35.31-15.837-35.31-35.31s15.837-35.31,35.31-35.31s35.31,15.837,35.31,35.31
			c0,4.873-3.946,8.828-8.828,8.828c-4.882,0-8.828-3.955-8.828-8.828c0-9.737-7.918-17.655-17.655-17.655
			c-9.737,0-17.655,7.918-17.655,17.655c0,9.737,7.918,17.655,17.655,17.655c19.474,0,35.31,15.837,35.31,35.31
			S178.37,220.69,158.897,220.69"/>
		<path style="fill:#24AE5F;" d="M158.897,114.759c-4.882,0-8.828-3.955-8.828-8.828V88.276c0-4.873,3.946-8.828,8.828-8.828
			c4.882,0,8.828,3.955,8.828,8.828v17.655C167.724,110.804,163.778,114.759,158.897,114.759"/>
		<path style="fill:#24AE5F;" d="M158.897,238.345c-4.882,0-8.828-3.955-8.828-8.828v-17.655c0-4.873,3.946-8.828,8.828-8.828
			c4.882,0,8.828,3.955,8.828,8.828v17.655C167.724,234.39,163.778,238.345,158.897,238.345"/>
		<path style="fill:#24AE5F;" d="M353.103,220.69c-19.474,0-35.31-15.837-35.31-35.31c0-4.873,3.946-8.828,8.828-8.828
			s8.828,3.955,8.828,8.828c0,9.737,7.918,17.655,17.655,17.655c9.737,0,17.655-7.918,17.655-17.655
			c0-9.737-7.918-17.655-17.655-17.655c-19.474,0-35.31-15.837-35.31-35.31s15.837-35.31,35.31-35.31
			c19.474,0,35.31,15.837,35.31,35.31c0,4.873-3.946,8.828-8.828,8.828s-8.828-3.955-8.828-8.828
			c0-9.737-7.918-17.655-17.655-17.655c-9.737,0-17.655,7.918-17.655,17.655c0,9.737,7.918,17.655,17.655,17.655
			c19.474,0,35.31,15.837,35.31,35.31S372.577,220.69,353.103,220.69"/>
		<path style="fill:#24AE5F;" d="M353.103,114.759c-4.882,0-8.828-3.955-8.828-8.828V88.276c0-4.873,3.946-8.828,8.828-8.828
			s8.828,3.955,8.828,8.828v17.655C361.931,110.804,357.985,114.759,353.103,114.759"/>
		<path style="fill:#24AE5F;" d="M353.103,238.345c-4.882,0-8.828-3.955-8.828-8.828v-17.655c0-4.873,3.946-8.828,8.828-8.828
			s8.828,3.955,8.828,8.828v17.655C361.931,234.39,357.985,238.345,353.103,238.345"/>
	</g>
	<path style="fill:#FB7B76;" d="M291.298,344.414c-13.586,0-25.935,5.155-35.31,13.568c-9.375-8.413-21.725-13.568-35.31-13.568
		c-20.727,0-38.63,11.935-47.325,29.29c23.923,14.91,52.136,23.534,82.635,23.534s58.712-8.625,82.635-23.534
		C329.927,356.348,312.025,344.414,291.298,344.414"/>
</g>
<g>
</g>
<g>
</g>
<g>
</g>
<g>
</g>
<g>
</g>
<g>
</g>
<g>
</g>
<g>
</g>
<g>
</g>
<g>
</g>
<g>
</g>
<g>
</g>
<g>
</g>
<g>
</g>
<g>
</g>
</svg>
